<svg width="38" height="111" viewBox="0 0 38 111" fill="none" xmlns="http://www.w3.org/2000/svg">
<path d="M21.5 3C21.5 1.61929 20.3807 0.5 19 0.5C17.6193 0.5 16.5 1.61929 16.5 3L21.5 3ZM17.2322 109.768C18.2085 110.744 19.7915 110.744 20.7678 109.768L36.6777 93.8579C37.654 92.8815 37.654 91.2986 36.6777 90.3223C35.7014 89.346 34.1184 89.346 33.1421 90.3223L19 104.464L4.85786 90.3223C3.88155 89.346 2.29864 89.346 1.32233 90.3223C0.346016 91.2986 0.346016 92.8815 1.32233 93.8579L17.2322 109.768ZM16.5 3L16.5 108L21.5 108L21.5 3L16.5 3Z" fill="white"/>
</svg>
